<svg width="1200" height="800" viewBox="0 0 1200 800" fill="none" xmlns="http://www.w3.org/2000/svg">
  <rect width="1200" height="800" rx="40" fill="#e8f7ff"/>
  <rect x="80" y="110" width="1040" height="580" rx="28" fill="white" stroke="#CBD5E1" stroke-width="4"/>
  <rect x="130" y="170" width="340" height="50" rx="10" fill="#1E3A8A" opacity="0.12"/>
  <rect x="130" y="250" width="540" height="24" rx="8" fill="#0F172A" opacity="0.12"/>
  <rect x="130" y="292" width="460" height="24" rx="8" fill="#0F172A" opacity="0.1"/>
  <rect x="130" y="334" width="390" height="24" rx="8" fill="#0F172A" opacity="0.08"/>
  <rect x="760" y="190" width="300" height="300" rx="20" fill="#2563EB" opacity="0.14"/>
  <path d="M800 430L850 360L910 390L960 300L1020 335" stroke="#1D4ED8" stroke-width="12" stroke-linecap="round" stroke-linejoin="round"/>
  <circle cx="850" cy="360" r="10" fill="#1D4ED8"/>
  <circle cx="960" cy="300" r="10" fill="#1D4ED8"/>
  <rect x="130" y="500" width="180" height="120" rx="16" fill="#10B981" opacity="0.2"/>
  <rect x="330" y="500" width="180" height="120" rx="16" fill="#0EA5E9" opacity="0.2"/>
  <rect x="530" y="500" width="180" height="120" rx="16" fill="#8B5CF6" opacity="0.2"/>
</svg>
