<svg width="1200" height="700" viewBox="0 0 1200 700" fill="none" xmlns="http://www.w3.org/2000/svg">
  <rect width="1200" height="700" rx="40" fill="#0F172A"/>
  <rect x="86" y="86" width="1028" height="528" rx="30" fill="#111827" stroke="#22D3EE" stroke-opacity="0.35"/>
  <rect x="134" y="134" width="420" height="480" rx="24" fill="#1F2937"/>
  <rect x="174" y="178" width="170" height="16" rx="8" fill="#CFFAFE"/>
  <rect x="174" y="222" width="336" height="48" rx="12" fill="#0F172A" stroke="#334155"/>
  <rect x="174" y="286" width="336" height="48" rx="12" fill="#0F172A" stroke="#334155"/>
  <rect x="174" y="350" width="336" height="48" rx="12" fill="#0F172A" stroke="#334155"/>
  <rect x="606" y="134" width="460" height="226" rx="24" fill="#EFF6FF"/>
  <path d="M648 294L730 242L810 262L896 206L1018 230" stroke="#1D4ED8" stroke-width="8" stroke-linecap="round" stroke-linejoin="round"/>
  <rect x="606" y="388" width="460" height="226" rx="24" fill="#E0F2FE"/>
  <rect x="648" y="446" width="58" height="126" rx="10" fill="#0284C7"/>
  <rect x="736" y="482" width="58" height="90" rx="10" fill="#0EA5E9"/>
  <rect x="824" y="420" width="58" height="152" rx="10" fill="#22D3EE"/>
  <rect x="912" y="458" width="58" height="114" rx="10" fill="#67E8F9"/>
</svg>
