<svg width="1200" height="700" viewBox="0 0 1200 700" fill="none" xmlns="http://www.w3.org/2000/svg">
  <rect width="1200" height="700" rx="40" fill="#F8FAFC"/>
  <rect x="70" y="74" width="1060" height="552" rx="30" fill="#FFFFFF" stroke="#CBD5E1"/>
  <rect x="112" y="126" width="430" height="450" rx="20" fill="#EFF6FF"/>
  <rect x="146" y="168" width="220" height="14" rx="7" fill="#1D4ED8" fill-opacity="0.85"/>
  <rect x="146" y="196" width="330" height="10" rx="5" fill="#64748B" fill-opacity="0.55"/>
  <rect x="146" y="250" width="360" height="70" rx="14" fill="#FFFFFF" stroke="#BFDBFE"/>
  <rect x="146" y="340" width="360" height="70" rx="14" fill="#FFFFFF" stroke="#BFDBFE"/>
  <rect x="146" y="430" width="360" height="70" rx="14" fill="#FFFFFF" stroke="#BFDBFE"/>
  <rect x="590" y="126" width="496" height="220" rx="20" fill="#0F172A"/>
  <path d="M632 282L728 230L806 248L912 172L1024 204" stroke="#22D3EE" stroke-width="8" stroke-linecap="round" stroke-linejoin="round"/>
  <rect x="590" y="374" width="496" height="202" rx="20" fill="#EEF2FF"/>
  <rect x="628" y="418" width="62" height="118" rx="10" fill="#6366F1"/>
  <rect x="718" y="454" width="62" height="82" rx="10" fill="#818CF8"/>
  <rect x="808" y="392" width="62" height="144" rx="10" fill="#3B82F6"/>
  <rect x="898" y="440" width="62" height="96" rx="10" fill="#0EA5E9"/>
</svg>
