<svg width="840" height="620" viewBox="0 0 840 620" fill="none" xmlns="http://www.w3.org/2000/svg" role="img" aria-label="Contact support illustration">
  <defs>
    <linearGradient id="contact-bg" x1="56" y1="24" x2="774" y2="590" gradientUnits="userSpaceOnUse">
      <stop stop-color="#0F172A"/>
      <stop offset="1" stop-color="#2563EB"/>
    </linearGradient>
    <linearGradient id="panel" x1="88" y1="94" x2="754" y2="526" gradientUnits="userSpaceOnUse">
      <stop stop-color="#FFFFFF" stop-opacity="0.98"/>
      <stop offset="1" stop-color="#E2E8F0" stop-opacity="0.88"/>
    </linearGradient>
  </defs>

  <rect x="20" y="20" width="800" height="580" rx="42" fill="url(#contact-bg)"/>
  <rect x="86" y="94" width="668" height="432" rx="30" fill="url(#panel)"/>

  <rect x="128" y="140" width="332" height="292" rx="24" fill="#F8FAFC"/>
  <rect x="158" y="178" width="156" height="16" rx="8" fill="#93C5FD"/>
  <rect x="158" y="208" width="268" height="13" rx="6.5" fill="#CBD5E1"/>
  <rect x="158" y="232" width="236" height="13" rx="6.5" fill="#E2E8F0"/>
  <rect x="158" y="270" width="268" height="120" rx="16" fill="#DBEAFE"/>
  <path d="M180 300L234 340L304 286L386 346" stroke="#2563EB" stroke-width="10" stroke-linecap="round" stroke-linejoin="round"/>

  <rect x="494" y="162" width="214" height="120" rx="20" fill="#EFF6FF"/>
  <path d="M525 210H676" stroke="#64748B" stroke-width="10" stroke-linecap="round"/>
  <path d="M525 234H640" stroke="#94A3B8" stroke-width="10" stroke-linecap="round"/>

  <rect x="494" y="304" width="214" height="120" rx="20" fill="#EFF6FF"/>
  <circle cx="550" cy="364" r="34" fill="#2563EB"/>
  <path d="M535 366L548 380L567 350" stroke="#EFF6FF" stroke-width="10" stroke-linecap="round" stroke-linejoin="round"/>
  <rect x="596" y="346" width="90" height="12" rx="6" fill="#93C5FD"/>
  <rect x="596" y="368" width="72" height="12" rx="6" fill="#CBD5E1"/>

  <path d="M262 456C290 424 327 410 358 410C390 410 429 424 457 456" stroke="#1E3A8A" stroke-width="12" stroke-linecap="round"/>
</svg>
