<svg width="840" height="620" viewBox="0 0 840 620" fill="none" xmlns="http://www.w3.org/2000/svg" role="img" aria-label="Finance help center illustration">
  <defs>
    <linearGradient id="bg" x1="66" y1="45" x2="754" y2="566" gradientUnits="userSpaceOnUse">
      <stop stop-color="#1D4ED8"/>
      <stop offset="1" stop-color="#0F172A"/>
    </linearGradient>
    <linearGradient id="card" x1="90" y1="102" x2="745" y2="526" gradientUnits="userSpaceOnUse">
      <stop stop-color="#FFFFFF" stop-opacity="0.97"/>
      <stop offset="1" stop-color="#DBEAFE" stop-opacity="0.82"/>
    </linearGradient>
  </defs>
  <rect x="20" y="20" width="800" height="580" rx="42" fill="url(#bg)"/>
  <rect x="88" y="96" width="664" height="430" rx="28" fill="url(#card)"/>
  <rect x="124" y="136" width="272" height="26" rx="13" fill="#BFDBFE"/>
  <rect x="124" y="178" width="440" height="18" rx="9" fill="#CBD5E1"/>
  <rect x="124" y="208" width="392" height="18" rx="9" fill="#E2E8F0"/>
  <rect x="124" y="262" width="312" height="218" rx="20" fill="#EFF6FF"/>
  <rect x="472" y="262" width="244" height="100" rx="20" fill="#F8FAFC"/>
  <rect x="490" y="286" width="90" height="14" rx="7" fill="#94A3B8"/>
  <rect x="490" y="312" width="190" height="12" rx="6" fill="#CBD5E1"/>
  <circle cx="525" cy="430" r="52" fill="#2563EB"/>
  <path d="M500 432L518 450L553 412" stroke="#EFF6FF" stroke-width="14" stroke-linecap="round" stroke-linejoin="round"/>
  <path d="M160 420L218 364L252 402L316 330" stroke="#2563EB" stroke-width="12" stroke-linecap="round" stroke-linejoin="round"/>
  <circle cx="160" cy="420" r="10" fill="#1E40AF"/>
  <circle cx="218" cy="364" r="10" fill="#1E40AF"/>
  <circle cx="252" cy="402" r="10" fill="#1E40AF"/>
  <circle cx="316" cy="330" r="10" fill="#1E40AF"/>
  <rect x="472" y="380" width="244" height="100" rx="20" fill="#F8FAFC"/>
  <rect x="496" y="404" width="172" height="13" rx="6.5" fill="#BFDBFE"/>
  <rect x="496" y="430" width="144" height="13" rx="6.5" fill="#CBD5E1"/>
</svg>
