<svg width="1200" height="700" viewBox="0 0 1200 700" fill="none" xmlns="http://www.w3.org/2000/svg">
  <defs>
    <linearGradient id="bg" x1="0" y1="0" x2="1200" y2="700" gradientUnits="userSpaceOnUse">
      <stop stop-color="#0F172A"/>
      <stop offset="1" stop-color="#1D4ED8"/>
    </linearGradient>
  </defs>
  <rect width="1200" height="700" rx="42" fill="url(#bg)"/>
  <rect x="78" y="82" width="1044" height="536" rx="28" fill="#0B1227" fill-opacity="0.78" stroke="#38BDF8" stroke-opacity="0.4"/>
  <rect x="130" y="140" width="360" height="180" rx="18" fill="#F8FAFC" fill-opacity="0.08"/>
  <rect x="170" y="178" width="178" height="16" rx="8" fill="#A5F3FC" fill-opacity="0.8"/>
  <rect x="170" y="210" width="254" height="12" rx="6" fill="#E2E8F0" fill-opacity="0.7"/>
  <rect x="170" y="242" width="220" height="12" rx="6" fill="#E2E8F0" fill-opacity="0.5"/>
  <path d="M570 462L658 360L742 394L840 286L956 328" stroke="#22D3EE" stroke-width="10" stroke-linecap="round" stroke-linejoin="round"/>
  <circle cx="658" cy="360" r="11" fill="#67E8F9"/>
  <circle cx="742" cy="394" r="11" fill="#67E8F9"/>
  <circle cx="840" cy="286" r="11" fill="#67E8F9"/>
  <circle cx="956" cy="328" r="11" fill="#67E8F9"/>
  <rect x="540" y="140" width="520" height="280" rx="18" fill="#F8FAFC" fill-opacity="0.06"/>
  <path d="M570 320C620 260 700 240 760 270C830 304 900 302 1040 196" stroke="#A5F3FC" stroke-width="8" stroke-linecap="round"/>
  <rect x="130" y="364" width="360" height="208" rx="18" fill="#F8FAFC" fill-opacity="0.06"/>
  <rect x="172" y="402" width="52" height="130" rx="8" fill="#22D3EE" fill-opacity="0.82"/>
  <rect x="244" y="452" width="52" height="80" rx="8" fill="#38BDF8" fill-opacity="0.82"/>
  <rect x="316" y="426" width="52" height="106" rx="8" fill="#818CF8" fill-opacity="0.9"/>
  <rect x="388" y="380" width="52" height="152" rx="8" fill="#C4B5FD" fill-opacity="0.9"/>
</svg>
